<?xml version="1.0" encoding="UTF-8" standalone="no"?>
<!-- Created with Inkscape (http://www.inkscape.org/) -->

<svg
   xmlns:dc="http://purl.org/dc/elements/1.1/"
   xmlns:cc="http://creativecommons.org/ns#"
   xmlns:rdf="http://www.w3.org/1999/02/22-rdf-syntax-ns#"
   xmlns:svg="http://www.w3.org/2000/svg"
   xmlns="http://www.w3.org/2000/svg"
   xmlns:xlink="http://www.w3.org/1999/xlink"
   xmlns:sodipodi="http://sodipodi.sourceforge.net/DTD/sodipodi-0.dtd"
   xmlns:inkscape="http://www.inkscape.org/namespaces/inkscape"
   width="755.04572"
   height="618.01367"
   id="svg3793"
   version="1.1"
   inkscape:version="0.48.1 r9760"
   inkscape:export-filename="/home/vasco/projs/dips-pages/images/dips.png"
   inkscape:export-xdpi="14.3"
   inkscape:export-ydpi="14.3"
   sodipodi:docname="New document 5">
  <defs
     id="defs3795">
    <linearGradient
       id="linearGradient4356">
      <stop
         style="stop-color:#cccccc;stop-opacity:1;"
         offset="0"
         id="stop4358" />
      <stop
         style="stop-color:#898989;stop-opacity:1;"
         offset="1"
         id="stop4360" />
    </linearGradient>
    <radialGradient
       inkscape:collect="always"
       xlink:href="#linearGradient4356"
       id="radialGradient4362"
       cx="432.80795"
       cy="352.53275"
       fx="432.80795"
       fy="352.53275"
       r="180.5"
       gradientUnits="userSpaceOnUse"
       gradientTransform="matrix(1.0695441,0.17160752,-0.1606459,1.0012258,26.582924,-67.732936)" />
    <radialGradient
       inkscape:collect="always"
       xlink:href="#linearGradient4356"
       id="radialGradient4370"
       cx="459.46735"
       cy="159.94275"
       fx="459.46735"
       fy="159.94275"
       r="219.20189"
       gradientTransform="matrix(0.7087232,-0.14139566,0.0130492,0.12262373,61.214635,288.34622)"
       gradientUnits="userSpaceOnUse" />
    <radialGradient
       inkscape:collect="always"
       xlink:href="#linearGradient4356"
       id="radialGradient4378"
       cx="258.6362"
       cy="352.47891"
       fx="258.6362"
       fy="352.47891"
       r="180.5"
       gradientUnits="userSpaceOnUse"
       gradientTransform="matrix(-0.02640757,1.1559542,-0.99973916,-0.02283887,617.85313,61.557541)" />
    <radialGradient
       inkscape:collect="always"
       xlink:href="#linearGradient4356"
       id="radialGradient4386"
       cx="380.48111"
       cy="339.23541"
       fx="380.48111"
       fy="339.23541"
       r="180.5"
       gradientUnits="userSpaceOnUse"
       gradientTransform="matrix(0.76226204,-0.64726856,0.64961988,0.76503109,-143.86375,329.48164)" />
    <radialGradient
       inkscape:collect="always"
       xlink:href="#linearGradient4356"
       id="radialGradient4394"
       cx="606.24823"
       cy="-49.683853"
       fx="606.24823"
       fy="-49.683853"
       r="219.20189"
       gradientTransform="matrix(0.01351358,-0.43284546,0.21916973,0.01231022,356.35311,730.64567)"
       gradientUnits="userSpaceOnUse" />
    <radialGradient
       inkscape:collect="always"
       xlink:href="#linearGradient4356"
       id="radialGradient4518"
       gradientUnits="userSpaceOnUse"
       gradientTransform="matrix(0.66809939,-0.10923408,0.00629583,0.12305074,57.410947,290.72773)"
       cx="506.52869"
       cy="300.23068"
       fx="506.52869"
       fy="300.23068"
       r="219.20189" />
  </defs>
  <sodipodi:namedview
     id="base"
     pagecolor="#ffffff"
     bordercolor="#666666"
     borderopacity="1.0"
     inkscape:pageopacity="0.0"
     inkscape:pageshadow="2"
     inkscape:zoom="0.7"
     inkscape:cx="382.20402"
     inkscape:cy="373.35422"
     inkscape:document-units="pt"
     inkscape:current-layer="layer1"
     showgrid="false"
     units="pt"
     fit-margin-top="0"
     fit-margin-left="0"
     fit-margin-right="0"
     fit-margin-bottom="0"
     inkscape:window-width="1366"
     inkscape:window-height="744"
     inkscape:window-x="0"
     inkscape:window-y="24"
     inkscape:window-maximized="1" />
  <metadata
     id="metadata3798">
    <rdf:RDF>
      <cc:Work
         rdf:about="">
        <dc:format>image/svg+xml</dc:format>
        <dc:type
           rdf:resource="http://purl.org/dc/dcmitype/StillImage" />
        <dc:title></dc:title>
      </cc:Work>
    </rdf:RDF>
  </metadata>
  <g
     inkscape:label="Layer 1"
     inkscape:groupmode="layer"
     id="layer1"
     transform="translate(-28.242872,-74.89076)">
    <path
       sodipodi:type="arc"
       style="fill:url(#radialGradient4378);fill-opacity:1;fill-rule:evenodd;stroke:#000000;stroke-width:22.4118576;stroke-linecap:butt;stroke-linejoin:miter;stroke-miterlimit:4;stroke-opacity:0.13793102;stroke-dasharray:none"
       id="path3801-3"
       sodipodi:cx="348.57144"
       sodipodi:cy="435.21933"
       sodipodi:rx="180"
       sodipodi:ry="180"
       d="m 528.57144,435.21933 c 0,99.41125 -80.58874,180 -180,180 -99.41125,0 -180,-80.58875 -180,-180 0,-99.41126 80.58875,-180 180,-180 99.41126,0 180,80.58874 180,180 z"
       transform="matrix(0.7942224,0,0,0.7942224,354.58533,-64.727326)" />
    <path
       style="fill:url(#radialGradient4518);fill-opacity:1;fill-rule:evenodd;stroke:#000000;stroke-width:14.59439182000000024;stroke-linecap:butt;stroke-linejoin:miter;stroke-miterlimit:4;stroke-opacity:0.13793101999999999"
       d="m 217.0757,243.84433 293.81042,14.20589 c 16.76522,28.38411 10.26103,46.38823 -2.94845,61.40125 L 214.12725,305.24558 z"
       id="rect3828"
       inkscape:connector-curvature="0"
       sodipodi:nodetypes="ccccc" />
    <path
       sodipodi:type="arc"
       style="fill:url(#radialGradient4362);fill-opacity:1;fill-rule:evenodd;stroke:#000000;stroke-width:17.79999924;stroke-linecap:butt;stroke-linejoin:miter;stroke-miterlimit:4;stroke-opacity:0.13793102;stroke-dasharray:none"
       id="path3801"
       sodipodi:cx="348.57144"
       sodipodi:cy="435.21933"
       sodipodi:rx="180"
       sodipodi:ry="180"
       d="m 528.57144,435.21933 c 0,99.41125 -80.58874,180 -180,180 -99.41125,0 -180,-80.58875 -180,-180 0,-99.41126 80.58875,-180 180,-180 99.41126,0 180,80.58874 180,180 z"
       transform="translate(-131.42857,-171.42857)" />
    <path
       style="fill:url(#radialGradient4394);fill-opacity:1;fill-rule:evenodd;stroke:#000000;stroke-width:12.15518856;stroke-linecap:butt;stroke-linejoin:miter;stroke-miterlimit:4;stroke-opacity:0.13793102"
       d="M 301.25538,349.34838 452.04254,591.03919 402.2224,613.48433 251.43524,371.79351 c 1.80617,-26.49458 37.41353,-30.60683 49.82014,-22.44513 z"
       id="rect3828-3"
       inkscape:connector-curvature="0"
       sodipodi:nodetypes="ccccc" />
    <path
       sodipodi:type="arc"
       style="fill:url(#radialGradient4386);fill-opacity:1;fill-rule:evenodd;stroke:#000000;stroke-width:31.0854187;stroke-linecap:butt;stroke-linejoin:miter;stroke-miterlimit:4;stroke-opacity:0.13793102;stroke-dasharray:none"
       id="path3801-1"
       sodipodi:cx="348.57144"
       sodipodi:cy="435.21933"
       sodipodi:rx="180"
       sodipodi:ry="180"
       d="m 528.57144,435.21933 a 180,180 0 1 1 -360,0 180,180 0 1 1 360,0 z"
       transform="matrix(0.57261575,0,0,0.57261575,177.54537,283.14874)" />
    <g
       transform="matrix(1,0,-0.01521929,1,10,-8.5714286)"
       style="font-size:257.51794434px;font-style:normal;font-weight:normal;line-height:125%;letter-spacing:0px;word-spacing:0px;fill:#000000;fill-opacity:0.10775865;stroke:none;font-family:Sans"
       id="text4396">
      <path
         d="m 173.74886,217.64651 c 0,0 1.75647,21.71312 6.52321,29.82651 4.76674,8.11339 8.74918,13.19382 19.34202,17.14286 10.59284,3.94904 31.13649,7.51329 41.82775,-0.60767 10.69126,-8.12096 11.76823,-27.33144 10.9367,-37.58275 -0.83153,-10.25131 -1.49473,-13.74521 -9.5951,-20.31413 -8.10037,-6.56892 -28.29263,-9.40937 -38.84015,-9.17911 -10.54752,0.23026 -22.55471,6.42857 -22.55471,6.42857 m -23.3547,-27.30161 c 0,0 46.81769,-1e-4 57.33798,0 10.5203,9e-5 25.45543,4.82001 36.22734,14.3345 10.77191,9.51449 20.54981,26.16119 20.54981,44.60321 0,18.44202 -11.09784,36.81077 -21.86967,46.28328 -10.77183,9.47251 -24.38718,7.06593 -34.90748,7.06589 -10.52029,-4e-5 -17.21847,-3.17286 -21.78607,10 -4.5676,13.17286 33.19336,38.09185 26.81673,54.01614 -6.37663,15.92429 -8.89871,33.00523 -40.89658,14.28571 C 147.50807,347.92839 146.7647,192.39846 146.7647,192.39846"
         id="path4401"
         inkscape:connector-curvature="0"
         sodipodi:nodetypes="czzzzzzcczzzzzzzzc"
         style="fill:#000000;fill-opacity:0.10775865" />
    </g>
    <g
       transform="matrix(0.64889806,-0.47753304,0.42621115,0.59984652,432.9813,169.38153)"
       style="font-size:257.51794434px;font-style:normal;font-weight:normal;line-height:125%;letter-spacing:0px;word-spacing:0px;fill:#000000;fill-opacity:0.10775865;stroke:none;font-family:Sans"
       id="text4396-5"
       inkscape:transform-center-y="20.203051">
      <path
         d="m 173.74886,217.64651 c 0,0 1.75647,21.71312 6.52321,29.82651 4.76674,8.11339 8.74918,13.19382 19.34202,17.14286 10.59284,3.94904 19.08636,11.61426 29.77762,3.4933 10.69126,-8.12096 14.19346,-25.99612 13.36193,-36.24743 -0.83153,-10.25131 -1.49473,-13.74521 -9.5951,-20.31413 -8.10037,-6.56892 -21.54949,-12.97208 -32.09701,-12.74182 -10.54752,0.23026 -19.67295,4.55499 -19.67295,4.55499 m -23.3547,-27.30161 c 0,0 37.19279,5.43619 47.71308,5.43629 10.5203,9e-5 25.45543,4.82001 36.22734,14.3345 10.77191,9.51449 20.54981,26.16119 20.54981,44.60321 0,18.44202 -11.92527,35.55667 -22.6971,45.02918 -10.77183,9.47251 -13.93485,2.88374 -24.45515,2.8837 -10.52029,-4e-5 -17.21847,-3.17286 -21.78607,10 -4.5676,13.17286 33.19336,38.09185 26.81673,54.01614 -6.37663,15.92429 -8.89871,33.00523 -40.89658,14.28571 C 147.50807,347.92839 146.7647,192.39846 146.7647,192.39846"
         id="path4401-8"
         inkscape:connector-curvature="0"
         sodipodi:nodetypes="czzzzzcccczzzzzzzc"
         style="fill:#000000;fill-opacity:0.10775865" />
    </g>
    <g
       transform="matrix(-0.78147197,-0.19597974,0.19086368,-0.71066367,505.07629,705.58081)"
       style="font-size:257.51794434px;font-style:normal;font-weight:normal;line-height:125%;letter-spacing:0px;word-spacing:0px;fill:#000000;fill-opacity:0.10775865;stroke:none;font-family:Sans"
       id="text4396-5-8"
       inkscape:transform-center-y="-18.511182"
       inkscape:transform-center-x="-2.185551">
      <path
         d="m 173.74886,217.64651 c 0,0 1.75647,21.71312 6.52321,29.82651 4.76674,8.11339 8.74918,13.19382 19.34202,17.14286 10.59284,3.94904 19.08636,11.61426 29.77762,3.4933 10.69126,-8.12096 14.19346,-25.99612 13.36193,-36.24743 -0.83153,-10.25131 -1.49473,-13.74521 -9.5951,-20.31413 -8.10037,-6.56892 -21.54949,-12.97208 -32.09701,-12.74182 -10.54752,0.23026 -19.67295,4.55499 -19.67295,4.55499 m -23.3547,-27.30161 c 0,0 37.19279,5.43619 47.71308,5.43629 10.5203,9e-5 25.45543,4.82001 36.22734,14.3345 10.77191,9.51449 20.54981,26.16119 20.54981,44.60321 0,18.44202 -11.92527,35.55667 -22.6971,45.02918 -10.77183,9.47251 -13.93485,2.88374 -24.45515,2.8837 -10.52029,-4e-5 -17.21847,-3.17286 -21.78607,10 -4.5676,13.17286 -2.3561,23.52173 -3.91638,24.54901 -1.56028,1.02728 -11.16124,1.84668 -23.23433,-4.52703 -12.0731,-6.37371 -19.67038,-125.96958 -19.67038,-125.96958"
         id="path4401-8-9"
         inkscape:connector-curvature="0"
         sodipodi:nodetypes="czzzzzcccczzzzzzzc"
         style="fill:#000000;fill-opacity:0.10775865" />
    </g>
    <g
       transform="matrix(0.94560813,0,-0.01439148,0.94560813,19.479369,3.0165042)"
       style="font-size:257.51794434px;font-style:normal;font-weight:normal;line-height:125%;letter-spacing:0px;word-spacing:0px;fill:#000000;fill-opacity:0.10775865;stroke:none;font-family:Sans"
       id="text4396-9">
      <path
         d="m 173.74886,217.64651 c 0,0 1.75647,21.71312 6.52321,29.82651 4.76674,8.11339 8.74918,13.19382 19.34202,17.14286 10.59284,3.94904 31.13649,7.51329 41.82775,-0.60767 10.69126,-8.12096 11.76823,-27.33144 10.9367,-37.58275 -0.83153,-10.25131 -1.49473,-13.74521 -9.5951,-20.31413 -8.10037,-6.56892 -28.29263,-9.40937 -38.84015,-9.17911 -10.54752,0.23026 -22.55471,6.42857 -22.55471,6.42857 m -23.3547,-27.30161 c 0,0 46.81769,-1e-4 57.33798,0 10.5203,9e-5 25.45543,4.82001 36.22734,14.3345 10.77191,9.51449 20.54981,26.16119 20.54981,44.60321 0,18.44202 -11.09784,36.81077 -21.86967,46.28328 -10.77183,9.47251 -24.38718,7.06593 -34.90748,7.06589 -10.52029,-4e-5 -17.21847,-3.17286 -21.78607,10 -4.5676,13.17286 33.19336,38.09185 26.81673,54.01614 -6.37663,15.92429 -8.89871,33.00523 -40.89658,14.28571 C 147.50807,347.92839 146.7647,192.39846 146.7647,192.39846"
         id="path4401-2"
         inkscape:connector-curvature="0"
         sodipodi:nodetypes="czzzzzzcczzzzzzzzc"
         style="fill:#000000;fill-opacity:0.10775865" />
    </g>
    <g
       transform="matrix(0.57192488,-0.42088742,0.3756534,0.52869191,460.37911,174.47964)"
       style="font-size:257.51794434px;font-style:normal;font-weight:normal;line-height:125%;letter-spacing:0px;word-spacing:0px;fill:#000000;fill-opacity:0.10775865;stroke:none;font-family:Sans"
       id="text4396-5-4"
       inkscape:transform-center-y="17.806537">
      <path
         d="m 173.74886,217.64651 c 0,0 1.75647,21.71312 6.52321,29.82651 4.76674,8.11339 8.74918,13.19382 19.34202,17.14286 10.59284,3.94904 19.08636,11.61426 29.77762,3.4933 10.69126,-8.12096 14.19346,-25.99612 13.36193,-36.24743 -0.83153,-10.25131 -1.49473,-13.74521 -9.5951,-20.31413 -8.10037,-6.56892 -21.54949,-12.97208 -32.09701,-12.74182 -10.54752,0.23026 -19.67295,4.55499 -19.67295,4.55499 m -23.3547,-27.30161 c 0,0 37.19279,5.43619 47.71308,5.43629 10.5203,9e-5 25.45543,4.82001 36.22734,14.3345 10.77191,9.51449 20.54981,26.16119 20.54981,44.60321 0,18.44202 -11.92527,35.55667 -22.6971,45.02918 -10.77183,9.47251 -13.93485,2.88374 -24.45515,2.8837 -10.52029,-4e-5 -17.21847,-3.17286 -21.78607,10 -4.5676,13.17286 33.19336,38.09185 26.81673,54.01614 -6.37663,15.92429 -8.89871,33.00523 -40.89658,14.28571 C 147.50807,347.92839 146.7647,192.39846 146.7647,192.39846"
         id="path4401-8-5"
         inkscape:connector-curvature="0"
         sodipodi:nodetypes="czzzzzcccczzzzzzzc"
         style="fill:#000000;fill-opacity:0.10775865" />
    </g>
    <g
       transform="matrix(-0.70979863,-0.1780053,0.17335846,-0.64548457,494.76651,683.73383)"
       style="font-size:257.51794434px;font-style:normal;font-weight:normal;line-height:125%;letter-spacing:0px;word-spacing:0px;fill:#000000;fill-opacity:0.10775865;stroke:none;font-family:Sans"
       id="text4396-5-8-6"
       inkscape:transform-center-y="-16.813414"
       inkscape:transform-center-x="-1.9851005">
      <path
         d="m 173.74886,217.64651 c 0,0 1.75647,21.71312 6.52321,29.82651 4.76674,8.11339 8.74918,13.19382 19.34202,17.14286 10.59284,3.94904 19.08636,11.61426 29.77762,3.4933 10.69126,-8.12096 14.19346,-25.99612 13.36193,-36.24743 -0.83153,-10.25131 -1.49473,-13.74521 -9.5951,-20.31413 -8.10037,-6.56892 -21.54949,-12.97208 -32.09701,-12.74182 -10.54752,0.23026 -19.67295,4.55499 -19.67295,4.55499 m -23.3547,-27.30161 c 0,0 37.19279,5.43619 47.71308,5.43629 10.5203,9e-5 25.45543,4.82001 36.22734,14.3345 10.77191,9.51449 20.54981,26.16119 20.54981,44.60321 0,18.44202 -11.92527,35.55667 -22.6971,45.02918 -10.77183,9.47251 -13.93485,2.88374 -24.45515,2.8837 -10.52029,-4e-5 -17.21847,-3.17286 -21.78607,10 -4.5676,13.17286 -2.3561,23.52173 -3.91638,24.54901 -1.56028,1.02728 -11.16124,1.84668 -23.23433,-4.52703 -12.0731,-6.37371 -19.67038,-125.96958 -19.67038,-125.96958"
         id="path4401-8-9-3"
         inkscape:connector-curvature="0"
         sodipodi:nodetypes="czzzzzcccczzzzzzzc"
         style="fill:#000000;fill-opacity:0.10775865" />
    </g>
    <text
       xml:space="preserve"
       style="font-size:40px;font-style:normal;font-weight:normal;line-height:125%;letter-spacing:0px;word-spacing:0px;fill:#000000;fill-opacity:1;stroke:none;font-family:Sans"
       x="-130"
       y="350.87082"
       id="text4520"
       sodipodi:linespacing="125%"
       transform="translate(28.242872,74.89076)"><tspan
         sodipodi:role="line"
         id="tspan4522"
         x="-130"
         y="350.87082" /></text>
  </g>
</svg>
